# xmcd
#
# Track frame offsets: 
#        150
#        19755
#        42957
#        68852
#        91030
#        113702
#        129762
#
# Disc length: 2045 seconds
#
# Revision: 1
# Processed by: cddbd v1.5.2PL0 Copyright (c) Steve Scherf et al.
# Submitted via: ExactAudioCopy v0.99pb5
#
DISCID=4c07fb07
DTITLE=Ahn Trio (with guest vocalists) - Lullaby For My Favorite Insom
DTITLE=niac (Remix Bonus CD)
DYEAR=2008
DGENRE=Classical
TTITLE0=My Funny Valentine (Ra.D - My Funny Baby Mix)
TTITLE1=Solitary Singer (Jin By Jin Remix)
TTITLE2=This Is Not America (superdrive - This is America Mix)
TTITLE3=Song on the Land (DJ Spooky Remix)
TTITLE4=Dream (Jin By Jin Remix)
TTITLE5=Heart Asks Pleasure First (DJ Spooky Remix)
TTITLE6=Lullaby For My Favorite Insomniac (Tao of Sound Remix)
EXTD=
EXTT0=
EXTT1=
EXTT2=
EXTT3=
EXTT4=
EXTT5=
EXTT6=
PLAYORDER=
